<mxfile host="Electron" modified="2024-03-17T14:01:19.554Z" agent="Mozilla/5.0 (Windows NT 10.0; Win64; x64) AppleWebKit/537.36 (KHTML, like Gecko) draw.io/24.0.4 Chrome/120.0.6099.109 Electron/28.1.0 Safari/537.36" etag="uM9n7MBr8RNPrzeLYHBM" version="24.0.4" type="device">
  <diagram name="ページ1" id="LE8fIzdrHe0wcv1LTvfw">
    <mxGraphModel dx="2833" dy="1673" grid="1" gridSize="10" guides="1" tooltips="1" connect="1" arrows="1" fold="1" page="1" pageScale="1" pageWidth="1600" pageHeight="1200" math="0" shadow="0">
      <root>
        <mxCell id="0" />
        <mxCell id="cFaB45KztUIKXS-_cTrr-4" value="背景" style="locked=1;" parent="0" visible="0" />
        <mxCell id="cFaB45KztUIKXS-_cTrr-5" value="" style="rounded=0;whiteSpace=wrap;html=1;strokeWidth=3;" parent="cFaB45KztUIKXS-_cTrr-4" vertex="1">
          <mxGeometry x="1" y="1" width="1595" height="1180" as="geometry" />
        </mxCell>
        <mxCell id="cFaB45KztUIKXS-_cTrr-6" value="" style="rounded=0;whiteSpace=wrap;html=1;fillColor=#B3B3B3;fontColor=#333333;strokeColor=#666666;" parent="cFaB45KztUIKXS-_cTrr-4" vertex="1">
          <mxGeometry width="1595" height="60" as="geometry" />
        </mxCell>
        <mxCell id="cFaB45KztUIKXS-_cTrr-7" value="&lt;font style=&quot;font-size: 48px;&quot;&gt;×&lt;/font&gt;" style="rounded=0;whiteSpace=wrap;html=1;" parent="cFaB45KztUIKXS-_cTrr-4" vertex="1">
          <mxGeometry x="1550" y="10" width="40" height="40" as="geometry" />
        </mxCell>
        <mxCell id="cFaB45KztUIKXS-_cTrr-8" value="" style="rounded=0;whiteSpace=wrap;html=1;" parent="cFaB45KztUIKXS-_cTrr-4" vertex="1">
          <mxGeometry x="830" y="670" width="120" height="60" as="geometry" />
        </mxCell>
        <mxCell id="cFaB45KztUIKXS-_cTrr-9" value="ウインドウ" style="locked=1;" parent="0" />
        <mxCell id="cFaB45KztUIKXS-_cTrr-10" value="" style="rounded=0;whiteSpace=wrap;html=1;strokeWidth=3;" parent="cFaB45KztUIKXS-_cTrr-9" vertex="1">
          <mxGeometry x="1" y="1" width="1849" height="1159" as="geometry" />
        </mxCell>
        <mxCell id="cFaB45KztUIKXS-_cTrr-11" value="" style="rounded=0;whiteSpace=wrap;html=1;fillColor=#B3B3B3;fontColor=#333333;strokeColor=#666666;" parent="cFaB45KztUIKXS-_cTrr-9" vertex="1">
          <mxGeometry width="1595" height="60" as="geometry" />
        </mxCell>
        <mxCell id="cFaB45KztUIKXS-_cTrr-12" value="&lt;font style=&quot;font-size: 48px;&quot;&gt;×&lt;/font&gt;" style="rounded=0;whiteSpace=wrap;html=1;" parent="cFaB45KztUIKXS-_cTrr-9" vertex="1">
          <mxGeometry x="1550" y="10" width="40" height="40" as="geometry" />
        </mxCell>
        <mxCell id="X2qYtOgRWUH-pQ-nCUiT-1" value="" style="line;strokeWidth=2;direction=south;html=1;dashed=1;dashPattern=12 12;" vertex="1" parent="cFaB45KztUIKXS-_cTrr-9">
          <mxGeometry x="1600" y="10" width="11.76" height="1090" as="geometry" />
        </mxCell>
        <mxCell id="cFaB45KztUIKXS-_cTrr-14" value="名称未設定レイヤ" style="" parent="0" />
        <mxCell id="kxWkAaZomFuKM2yIZcbC-56" value="" style="shape=table;startSize=0;container=1;collapsible=0;childLayout=tableLayout;fontSize=16;" parent="cFaB45KztUIKXS-_cTrr-14" vertex="1">
          <mxGeometry x="33" y="290" width="1677" height="630" as="geometry" />
        </mxCell>
        <mxCell id="kxWkAaZomFuKM2yIZcbC-57" value="" style="shape=tableRow;horizontal=0;startSize=0;swimlaneHead=0;swimlaneBody=0;strokeColor=inherit;top=0;left=0;bottom=0;right=0;collapsible=0;dropTarget=0;fillColor=none;points=[[0,0.5],[1,0.5]];portConstraint=eastwest;fontSize=16;" parent="kxWkAaZomFuKM2yIZcbC-56" vertex="1">
          <mxGeometry width="1677" height="40" as="geometry" />
        </mxCell>
        <mxCell id="auQGhdGy_nrCcuV3ys4A-0" value="&lt;font style=&quot;font-size: 30px;&quot;&gt;提出年&lt;/font&gt;" style="shape=partialRectangle;html=1;whiteSpace=wrap;connectable=0;strokeColor=inherit;overflow=hidden;fillColor=none;top=0;left=0;bottom=0;right=0;pointerEvents=1;fontSize=16;" parent="kxWkAaZomFuKM2yIZcbC-57" vertex="1">
          <mxGeometry width="190" height="40" as="geometry">
            <mxRectangle width="190" height="40" as="alternateBounds" />
          </mxGeometry>
        </mxCell>
        <mxCell id="auQGhdGy_nrCcuV3ys4A-6" value="&lt;font style=&quot;font-size: 30px;&quot;&gt;団体名称&lt;/font&gt;" style="shape=partialRectangle;html=1;whiteSpace=wrap;connectable=0;strokeColor=inherit;overflow=hidden;fillColor=none;top=0;left=0;bottom=0;right=0;pointerEvents=1;fontSize=16;" parent="kxWkAaZomFuKM2yIZcbC-57" vertex="1">
          <mxGeometry x="190" width="257" height="40" as="geometry">
            <mxRectangle width="257" height="40" as="alternateBounds" />
          </mxGeometry>
        </mxCell>
        <mxCell id="jg2MIfzhhFmE0y6_k9qZ-0" value="&lt;font style=&quot;font-size: 30px;&quot;&gt;提出回数&lt;/font&gt;" style="shape=partialRectangle;html=1;whiteSpace=wrap;connectable=0;strokeColor=inherit;overflow=hidden;fillColor=none;top=0;left=0;bottom=0;right=0;pointerEvents=1;fontSize=16;" parent="kxWkAaZomFuKM2yIZcbC-57" vertex="1">
          <mxGeometry x="447" width="150" height="40" as="geometry">
            <mxRectangle width="150" height="40" as="alternateBounds" />
          </mxGeometry>
        </mxCell>
        <mxCell id="cdmeLEnnqN9o7mxTk7t2-17" value="&lt;font style=&quot;font-size: 30px;&quot;&gt;システム登録&lt;/font&gt;" style="shape=partialRectangle;html=1;whiteSpace=wrap;connectable=0;strokeColor=inherit;overflow=hidden;fillColor=none;top=0;left=0;bottom=0;right=0;pointerEvents=1;fontSize=16;" parent="kxWkAaZomFuKM2yIZcbC-57" vertex="1">
          <mxGeometry x="597" width="210" height="40" as="geometry">
            <mxRectangle width="210" height="40" as="alternateBounds" />
          </mxGeometry>
        </mxCell>
        <mxCell id="kxWkAaZomFuKM2yIZcbC-60" value="&lt;font style=&quot;font-size: 30px;&quot;&gt;リンク&lt;/font&gt;" style="shape=partialRectangle;html=1;whiteSpace=wrap;connectable=0;strokeColor=inherit;overflow=hidden;fillColor=none;top=0;left=0;bottom=0;right=0;pointerEvents=1;fontSize=16;" parent="kxWkAaZomFuKM2yIZcbC-57" vertex="1">
          <mxGeometry x="807" width="340" height="40" as="geometry">
            <mxRectangle width="340" height="40" as="alternateBounds" />
          </mxGeometry>
        </mxCell>
        <mxCell id="MaUud2tb9p-aUOcpimnH-0" value="&lt;font style=&quot;font-size: 30px;&quot;&gt;公式保存期間&lt;/font&gt;" style="shape=partialRectangle;html=1;whiteSpace=wrap;connectable=0;strokeColor=inherit;overflow=hidden;fillColor=none;top=0;left=0;bottom=0;right=0;pointerEvents=1;fontSize=16;" parent="kxWkAaZomFuKM2yIZcbC-57" vertex="1">
          <mxGeometry x="1147" width="190" height="40" as="geometry">
            <mxRectangle width="190" height="40" as="alternateBounds" />
          </mxGeometry>
        </mxCell>
        <mxCell id="kxWkAaZomFuKM2yIZcbC-61" value="&lt;font style=&quot;font-size: 30px;&quot;&gt;リンク(外部)&lt;/font&gt;" style="shape=partialRectangle;html=1;whiteSpace=wrap;connectable=0;strokeColor=inherit;overflow=hidden;fillColor=none;top=0;left=0;bottom=0;right=0;pointerEvents=1;fontSize=16;" parent="kxWkAaZomFuKM2yIZcbC-57" vertex="1">
          <mxGeometry x="1337" width="340" height="40" as="geometry">
            <mxRectangle width="340" height="40" as="alternateBounds" />
          </mxGeometry>
        </mxCell>
        <mxCell id="kxWkAaZomFuKM2yIZcbC-64" value="" style="shape=tableRow;horizontal=0;startSize=0;swimlaneHead=0;swimlaneBody=0;strokeColor=inherit;top=0;left=0;bottom=0;right=0;collapsible=0;dropTarget=0;fillColor=none;points=[[0,0.5],[1,0.5]];portConstraint=eastwest;fontSize=16;" parent="kxWkAaZomFuKM2yIZcbC-56" vertex="1">
          <mxGeometry y="40" width="1677" height="40" as="geometry" />
        </mxCell>
        <mxCell id="auQGhdGy_nrCcuV3ys4A-1" value="" style="shape=partialRectangle;html=1;whiteSpace=wrap;connectable=0;strokeColor=inherit;overflow=hidden;fillColor=none;top=0;left=0;bottom=0;right=0;pointerEvents=1;fontSize=16;" parent="kxWkAaZomFuKM2yIZcbC-64" vertex="1">
          <mxGeometry width="190" height="40" as="geometry">
            <mxRectangle width="190" height="40" as="alternateBounds" />
          </mxGeometry>
        </mxCell>
        <mxCell id="auQGhdGy_nrCcuV3ys4A-7" value="&lt;span style=&quot;font-size: 30px;&quot;&gt;政治団体1&lt;/span&gt;" style="shape=partialRectangle;html=1;whiteSpace=wrap;connectable=0;strokeColor=inherit;overflow=hidden;fillColor=none;top=0;left=0;bottom=0;right=0;pointerEvents=1;fontSize=16;align=left;" parent="kxWkAaZomFuKM2yIZcbC-64" vertex="1">
          <mxGeometry x="190" width="257" height="40" as="geometry">
            <mxRectangle width="257" height="40" as="alternateBounds" />
          </mxGeometry>
        </mxCell>
        <mxCell id="jg2MIfzhhFmE0y6_k9qZ-1" style="shape=partialRectangle;html=1;whiteSpace=wrap;connectable=0;strokeColor=inherit;overflow=hidden;fillColor=none;top=0;left=0;bottom=0;right=0;pointerEvents=1;fontSize=16;" parent="kxWkAaZomFuKM2yIZcbC-64" vertex="1">
          <mxGeometry x="447" width="150" height="40" as="geometry">
            <mxRectangle width="150" height="40" as="alternateBounds" />
          </mxGeometry>
        </mxCell>
        <mxCell id="cdmeLEnnqN9o7mxTk7t2-18" value="" style="shape=partialRectangle;html=1;whiteSpace=wrap;connectable=0;strokeColor=inherit;overflow=hidden;fillColor=none;top=0;left=0;bottom=0;right=0;pointerEvents=1;fontSize=16;" parent="kxWkAaZomFuKM2yIZcbC-64" vertex="1">
          <mxGeometry x="597" width="210" height="40" as="geometry">
            <mxRectangle width="210" height="40" as="alternateBounds" />
          </mxGeometry>
        </mxCell>
        <mxCell id="kxWkAaZomFuKM2yIZcbC-67" value="" style="shape=partialRectangle;html=1;whiteSpace=wrap;connectable=0;strokeColor=inherit;overflow=hidden;fillColor=none;top=0;left=0;bottom=0;right=0;pointerEvents=1;fontSize=16;" parent="kxWkAaZomFuKM2yIZcbC-64" vertex="1">
          <mxGeometry x="807" width="340" height="40" as="geometry">
            <mxRectangle width="340" height="40" as="alternateBounds" />
          </mxGeometry>
        </mxCell>
        <mxCell id="MaUud2tb9p-aUOcpimnH-1" style="shape=partialRectangle;html=1;whiteSpace=wrap;connectable=0;strokeColor=inherit;overflow=hidden;fillColor=none;top=0;left=0;bottom=0;right=0;pointerEvents=1;fontSize=16;align=left;" parent="kxWkAaZomFuKM2yIZcbC-64" vertex="1">
          <mxGeometry x="1147" width="190" height="40" as="geometry">
            <mxRectangle width="190" height="40" as="alternateBounds" />
          </mxGeometry>
        </mxCell>
        <mxCell id="kxWkAaZomFuKM2yIZcbC-68" value="&lt;font style=&quot;font-size: 30px;&quot;&gt;&lt;u&gt;市民団体1&lt;/u&gt;&lt;/font&gt;" style="shape=partialRectangle;html=1;whiteSpace=wrap;connectable=0;strokeColor=inherit;overflow=hidden;fillColor=none;top=0;left=0;bottom=0;right=0;pointerEvents=1;fontSize=16;align=left;" parent="kxWkAaZomFuKM2yIZcbC-64" vertex="1">
          <mxGeometry x="1337" width="340" height="40" as="geometry">
            <mxRectangle width="340" height="40" as="alternateBounds" />
          </mxGeometry>
        </mxCell>
        <mxCell id="kxWkAaZomFuKM2yIZcbC-71" value="" style="shape=tableRow;horizontal=0;startSize=0;swimlaneHead=0;swimlaneBody=0;strokeColor=inherit;top=0;left=0;bottom=0;right=0;collapsible=0;dropTarget=0;fillColor=none;points=[[0,0.5],[1,0.5]];portConstraint=eastwest;fontSize=16;align=left;" parent="kxWkAaZomFuKM2yIZcbC-56" vertex="1">
          <mxGeometry y="80" width="1677" height="40" as="geometry" />
        </mxCell>
        <mxCell id="auQGhdGy_nrCcuV3ys4A-2" value="" style="shape=partialRectangle;html=1;whiteSpace=wrap;connectable=0;strokeColor=inherit;overflow=hidden;fillColor=none;top=0;left=0;bottom=0;right=0;pointerEvents=1;fontSize=16;" parent="kxWkAaZomFuKM2yIZcbC-71" vertex="1">
          <mxGeometry width="190" height="40" as="geometry">
            <mxRectangle width="190" height="40" as="alternateBounds" />
          </mxGeometry>
        </mxCell>
        <mxCell id="auQGhdGy_nrCcuV3ys4A-8" value="&lt;font style=&quot;font-size: 30px;&quot;&gt;政治団体1&lt;br&gt;&lt;/font&gt;" style="shape=partialRectangle;html=1;whiteSpace=wrap;connectable=0;strokeColor=inherit;overflow=hidden;fillColor=none;top=0;left=0;bottom=0;right=0;pointerEvents=1;fontSize=16;align=left;" parent="kxWkAaZomFuKM2yIZcbC-71" vertex="1">
          <mxGeometry x="190" width="257" height="40" as="geometry">
            <mxRectangle width="257" height="40" as="alternateBounds" />
          </mxGeometry>
        </mxCell>
        <mxCell id="jg2MIfzhhFmE0y6_k9qZ-2" style="shape=partialRectangle;html=1;whiteSpace=wrap;connectable=0;strokeColor=inherit;overflow=hidden;fillColor=none;top=0;left=0;bottom=0;right=0;pointerEvents=1;fontSize=16;" parent="kxWkAaZomFuKM2yIZcbC-71" vertex="1">
          <mxGeometry x="447" width="150" height="40" as="geometry">
            <mxRectangle width="150" height="40" as="alternateBounds" />
          </mxGeometry>
        </mxCell>
        <mxCell id="cdmeLEnnqN9o7mxTk7t2-19" value="" style="shape=partialRectangle;html=1;whiteSpace=wrap;connectable=0;strokeColor=inherit;overflow=hidden;fillColor=none;top=0;left=0;bottom=0;right=0;pointerEvents=1;fontSize=16;" parent="kxWkAaZomFuKM2yIZcbC-71" vertex="1">
          <mxGeometry x="597" width="210" height="40" as="geometry">
            <mxRectangle width="210" height="40" as="alternateBounds" />
          </mxGeometry>
        </mxCell>
        <mxCell id="kxWkAaZomFuKM2yIZcbC-74" value="" style="shape=partialRectangle;html=1;whiteSpace=wrap;connectable=0;strokeColor=inherit;overflow=hidden;fillColor=none;top=0;left=0;bottom=0;right=0;pointerEvents=1;fontSize=16;" parent="kxWkAaZomFuKM2yIZcbC-71" vertex="1">
          <mxGeometry x="807" width="340" height="40" as="geometry">
            <mxRectangle width="340" height="40" as="alternateBounds" />
          </mxGeometry>
        </mxCell>
        <mxCell id="MaUud2tb9p-aUOcpimnH-2" style="shape=partialRectangle;html=1;whiteSpace=wrap;connectable=0;strokeColor=inherit;overflow=hidden;fillColor=none;top=0;left=0;bottom=0;right=0;pointerEvents=1;fontSize=16;align=left;" parent="kxWkAaZomFuKM2yIZcbC-71" vertex="1">
          <mxGeometry x="1147" width="190" height="40" as="geometry">
            <mxRectangle width="190" height="40" as="alternateBounds" />
          </mxGeometry>
        </mxCell>
        <mxCell id="kxWkAaZomFuKM2yIZcbC-75" value="" style="shape=partialRectangle;html=1;whiteSpace=wrap;connectable=0;strokeColor=inherit;overflow=hidden;fillColor=none;top=0;left=0;bottom=0;right=0;pointerEvents=1;fontSize=16;align=left;" parent="kxWkAaZomFuKM2yIZcbC-71" vertex="1">
          <mxGeometry x="1337" width="340" height="40" as="geometry">
            <mxRectangle width="340" height="40" as="alternateBounds" />
          </mxGeometry>
        </mxCell>
        <mxCell id="kxWkAaZomFuKM2yIZcbC-78" style="shape=tableRow;horizontal=0;startSize=0;swimlaneHead=0;swimlaneBody=0;strokeColor=inherit;top=0;left=0;bottom=0;right=0;collapsible=0;dropTarget=0;fillColor=none;points=[[0,0.5],[1,0.5]];portConstraint=eastwest;fontSize=16;" parent="kxWkAaZomFuKM2yIZcbC-56" vertex="1">
          <mxGeometry y="120" width="1677" height="40" as="geometry" />
        </mxCell>
        <mxCell id="auQGhdGy_nrCcuV3ys4A-3" value="" style="shape=partialRectangle;html=1;whiteSpace=wrap;connectable=0;strokeColor=inherit;overflow=hidden;fillColor=none;top=0;left=0;bottom=0;right=0;pointerEvents=1;fontSize=16;" parent="kxWkAaZomFuKM2yIZcbC-78" vertex="1">
          <mxGeometry width="190" height="40" as="geometry">
            <mxRectangle width="190" height="40" as="alternateBounds" />
          </mxGeometry>
        </mxCell>
        <mxCell id="auQGhdGy_nrCcuV3ys4A-9" value="&lt;font style=&quot;font-size: 30px;&quot;&gt;政治団体1&lt;br&gt;&lt;/font&gt;" style="shape=partialRectangle;html=1;whiteSpace=wrap;connectable=0;strokeColor=inherit;overflow=hidden;fillColor=none;top=0;left=0;bottom=0;right=0;pointerEvents=1;fontSize=16;align=left;" parent="kxWkAaZomFuKM2yIZcbC-78" vertex="1">
          <mxGeometry x="190" width="257" height="40" as="geometry">
            <mxRectangle width="257" height="40" as="alternateBounds" />
          </mxGeometry>
        </mxCell>
        <mxCell id="jg2MIfzhhFmE0y6_k9qZ-3" style="shape=partialRectangle;html=1;whiteSpace=wrap;connectable=0;strokeColor=inherit;overflow=hidden;fillColor=none;top=0;left=0;bottom=0;right=0;pointerEvents=1;fontSize=16;" parent="kxWkAaZomFuKM2yIZcbC-78" vertex="1">
          <mxGeometry x="447" width="150" height="40" as="geometry">
            <mxRectangle width="150" height="40" as="alternateBounds" />
          </mxGeometry>
        </mxCell>
        <mxCell id="cdmeLEnnqN9o7mxTk7t2-20" value="" style="shape=partialRectangle;html=1;whiteSpace=wrap;connectable=0;strokeColor=inherit;overflow=hidden;fillColor=none;top=0;left=0;bottom=0;right=0;pointerEvents=1;fontSize=16;" parent="kxWkAaZomFuKM2yIZcbC-78" vertex="1">
          <mxGeometry x="597" width="210" height="40" as="geometry">
            <mxRectangle width="210" height="40" as="alternateBounds" />
          </mxGeometry>
        </mxCell>
        <mxCell id="kxWkAaZomFuKM2yIZcbC-81" value="" style="shape=partialRectangle;html=1;whiteSpace=wrap;connectable=0;strokeColor=inherit;overflow=hidden;fillColor=none;top=0;left=0;bottom=0;right=0;pointerEvents=1;fontSize=16;" parent="kxWkAaZomFuKM2yIZcbC-78" vertex="1">
          <mxGeometry x="807" width="340" height="40" as="geometry">
            <mxRectangle width="340" height="40" as="alternateBounds" />
          </mxGeometry>
        </mxCell>
        <mxCell id="MaUud2tb9p-aUOcpimnH-3" style="shape=partialRectangle;html=1;whiteSpace=wrap;connectable=0;strokeColor=inherit;overflow=hidden;fillColor=none;top=0;left=0;bottom=0;right=0;pointerEvents=1;fontSize=16;align=left;" parent="kxWkAaZomFuKM2yIZcbC-78" vertex="1">
          <mxGeometry x="1147" width="190" height="40" as="geometry">
            <mxRectangle width="190" height="40" as="alternateBounds" />
          </mxGeometry>
        </mxCell>
        <mxCell id="kxWkAaZomFuKM2yIZcbC-82" value="&lt;font style=&quot;font-size: 30px;&quot;&gt;&lt;u&gt;市民団体2&lt;/u&gt;&lt;/font&gt;" style="shape=partialRectangle;html=1;whiteSpace=wrap;connectable=0;strokeColor=inherit;overflow=hidden;fillColor=none;top=0;left=0;bottom=0;right=0;pointerEvents=1;fontSize=16;align=left;" parent="kxWkAaZomFuKM2yIZcbC-78" vertex="1">
          <mxGeometry x="1337" width="340" height="40" as="geometry">
            <mxRectangle width="340" height="40" as="alternateBounds" />
          </mxGeometry>
        </mxCell>
        <mxCell id="kxWkAaZomFuKM2yIZcbC-85" style="shape=tableRow;horizontal=0;startSize=0;swimlaneHead=0;swimlaneBody=0;strokeColor=inherit;top=0;left=0;bottom=0;right=0;collapsible=0;dropTarget=0;fillColor=none;points=[[0,0.5],[1,0.5]];portConstraint=eastwest;fontSize=16;" parent="kxWkAaZomFuKM2yIZcbC-56" vertex="1">
          <mxGeometry y="160" width="1677" height="40" as="geometry" />
        </mxCell>
        <mxCell id="auQGhdGy_nrCcuV3ys4A-4" value="" style="shape=partialRectangle;html=1;whiteSpace=wrap;connectable=0;strokeColor=inherit;overflow=hidden;fillColor=none;top=0;left=0;bottom=0;right=0;pointerEvents=1;fontSize=16;" parent="kxWkAaZomFuKM2yIZcbC-85" vertex="1">
          <mxGeometry width="190" height="40" as="geometry">
            <mxRectangle width="190" height="40" as="alternateBounds" />
          </mxGeometry>
        </mxCell>
        <mxCell id="auQGhdGy_nrCcuV3ys4A-10" value="&lt;font style=&quot;font-size: 30px;&quot;&gt;政治団体1&lt;/font&gt;" style="shape=partialRectangle;html=1;whiteSpace=wrap;connectable=0;strokeColor=inherit;overflow=hidden;fillColor=none;top=0;left=0;bottom=0;right=0;pointerEvents=1;fontSize=16;align=left;" parent="kxWkAaZomFuKM2yIZcbC-85" vertex="1">
          <mxGeometry x="190" width="257" height="40" as="geometry">
            <mxRectangle width="257" height="40" as="alternateBounds" />
          </mxGeometry>
        </mxCell>
        <mxCell id="jg2MIfzhhFmE0y6_k9qZ-4" style="shape=partialRectangle;html=1;whiteSpace=wrap;connectable=0;strokeColor=inherit;overflow=hidden;fillColor=none;top=0;left=0;bottom=0;right=0;pointerEvents=1;fontSize=16;" parent="kxWkAaZomFuKM2yIZcbC-85" vertex="1">
          <mxGeometry x="447" width="150" height="40" as="geometry">
            <mxRectangle width="150" height="40" as="alternateBounds" />
          </mxGeometry>
        </mxCell>
        <mxCell id="cdmeLEnnqN9o7mxTk7t2-21" value="&lt;span style=&quot;font-size: 30px;&quot;&gt;&lt;br&gt;&lt;/span&gt;" style="shape=partialRectangle;html=1;whiteSpace=wrap;connectable=0;strokeColor=inherit;overflow=hidden;fillColor=none;top=0;left=0;bottom=0;right=0;pointerEvents=1;fontSize=16;" parent="kxWkAaZomFuKM2yIZcbC-85" vertex="1">
          <mxGeometry x="597" width="210" height="40" as="geometry">
            <mxRectangle width="210" height="40" as="alternateBounds" />
          </mxGeometry>
        </mxCell>
        <mxCell id="kxWkAaZomFuKM2yIZcbC-88" value="" style="shape=partialRectangle;html=1;whiteSpace=wrap;connectable=0;strokeColor=inherit;overflow=hidden;fillColor=none;top=0;left=0;bottom=0;right=0;pointerEvents=1;fontSize=16;" parent="kxWkAaZomFuKM2yIZcbC-85" vertex="1">
          <mxGeometry x="807" width="340" height="40" as="geometry">
            <mxRectangle width="340" height="40" as="alternateBounds" />
          </mxGeometry>
        </mxCell>
        <mxCell id="MaUud2tb9p-aUOcpimnH-4" style="shape=partialRectangle;html=1;whiteSpace=wrap;connectable=0;strokeColor=inherit;overflow=hidden;fillColor=none;top=0;left=0;bottom=0;right=0;pointerEvents=1;fontSize=16;align=left;" parent="kxWkAaZomFuKM2yIZcbC-85" vertex="1">
          <mxGeometry x="1147" width="190" height="40" as="geometry">
            <mxRectangle width="190" height="40" as="alternateBounds" />
          </mxGeometry>
        </mxCell>
        <mxCell id="kxWkAaZomFuKM2yIZcbC-89" value="&lt;div style=&quot;&quot;&gt;&lt;/div&gt;&lt;span style=&quot;font-size: 30px;&quot;&gt;&lt;u&gt;市民団体2&lt;/u&gt;&lt;/span&gt;&lt;span style=&quot;font-size: 30px;&quot;&gt;&lt;br&gt;&lt;/span&gt;" style="shape=partialRectangle;html=1;whiteSpace=wrap;connectable=0;strokeColor=inherit;overflow=hidden;fillColor=none;top=0;left=0;bottom=0;right=0;pointerEvents=1;fontSize=16;align=left;" parent="kxWkAaZomFuKM2yIZcbC-85" vertex="1">
          <mxGeometry x="1337" width="340" height="40" as="geometry">
            <mxRectangle width="340" height="40" as="alternateBounds" />
          </mxGeometry>
        </mxCell>
        <mxCell id="85k659dpWBTyzMiFjKNi-45" style="shape=tableRow;horizontal=0;startSize=0;swimlaneHead=0;swimlaneBody=0;strokeColor=inherit;top=0;left=0;bottom=0;right=0;collapsible=0;dropTarget=0;fillColor=none;points=[[0,0.5],[1,0.5]];portConstraint=eastwest;fontSize=16;" parent="kxWkAaZomFuKM2yIZcbC-56" vertex="1">
          <mxGeometry y="200" width="1677" height="40" as="geometry" />
        </mxCell>
        <mxCell id="85k659dpWBTyzMiFjKNi-47" value="" style="shape=partialRectangle;html=1;whiteSpace=wrap;connectable=0;strokeColor=inherit;overflow=hidden;fillColor=none;top=0;left=0;bottom=0;right=0;pointerEvents=1;fontSize=16;" parent="85k659dpWBTyzMiFjKNi-45" vertex="1">
          <mxGeometry width="190" height="40" as="geometry">
            <mxRectangle width="190" height="40" as="alternateBounds" />
          </mxGeometry>
        </mxCell>
        <mxCell id="85k659dpWBTyzMiFjKNi-48" value="&lt;font style=&quot;font-size: 30px;&quot;&gt;政治団体1&lt;/font&gt;" style="shape=partialRectangle;html=1;whiteSpace=wrap;connectable=0;strokeColor=inherit;overflow=hidden;fillColor=none;top=0;left=0;bottom=0;right=0;pointerEvents=1;fontSize=16;align=left;" parent="85k659dpWBTyzMiFjKNi-45" vertex="1">
          <mxGeometry x="190" width="257" height="40" as="geometry">
            <mxRectangle width="257" height="40" as="alternateBounds" />
          </mxGeometry>
        </mxCell>
        <mxCell id="jg2MIfzhhFmE0y6_k9qZ-5" style="shape=partialRectangle;html=1;whiteSpace=wrap;connectable=0;strokeColor=inherit;overflow=hidden;fillColor=none;top=0;left=0;bottom=0;right=0;pointerEvents=1;fontSize=16;" parent="85k659dpWBTyzMiFjKNi-45" vertex="1">
          <mxGeometry x="447" width="150" height="40" as="geometry">
            <mxRectangle width="150" height="40" as="alternateBounds" />
          </mxGeometry>
        </mxCell>
        <mxCell id="85k659dpWBTyzMiFjKNi-49" style="shape=partialRectangle;html=1;whiteSpace=wrap;connectable=0;strokeColor=inherit;overflow=hidden;fillColor=none;top=0;left=0;bottom=0;right=0;pointerEvents=1;fontSize=16;" parent="85k659dpWBTyzMiFjKNi-45" vertex="1">
          <mxGeometry x="597" width="210" height="40" as="geometry">
            <mxRectangle width="210" height="40" as="alternateBounds" />
          </mxGeometry>
        </mxCell>
        <mxCell id="85k659dpWBTyzMiFjKNi-50" value="" style="shape=partialRectangle;html=1;whiteSpace=wrap;connectable=0;strokeColor=inherit;overflow=hidden;fillColor=none;top=0;left=0;bottom=0;right=0;pointerEvents=1;fontSize=16;" parent="85k659dpWBTyzMiFjKNi-45" vertex="1">
          <mxGeometry x="807" width="340" height="40" as="geometry">
            <mxRectangle width="340" height="40" as="alternateBounds" />
          </mxGeometry>
        </mxCell>
        <mxCell id="MaUud2tb9p-aUOcpimnH-5" style="shape=partialRectangle;html=1;whiteSpace=wrap;connectable=0;strokeColor=inherit;overflow=hidden;fillColor=none;top=0;left=0;bottom=0;right=0;pointerEvents=1;fontSize=16;align=left;" parent="85k659dpWBTyzMiFjKNi-45" vertex="1">
          <mxGeometry x="1147" width="190" height="40" as="geometry">
            <mxRectangle width="190" height="40" as="alternateBounds" />
          </mxGeometry>
        </mxCell>
        <mxCell id="85k659dpWBTyzMiFjKNi-51" style="shape=partialRectangle;html=1;whiteSpace=wrap;connectable=0;strokeColor=inherit;overflow=hidden;fillColor=none;top=0;left=0;bottom=0;right=0;pointerEvents=1;fontSize=16;align=left;" parent="85k659dpWBTyzMiFjKNi-45" vertex="1">
          <mxGeometry x="1337" width="340" height="40" as="geometry">
            <mxRectangle width="340" height="40" as="alternateBounds" />
          </mxGeometry>
        </mxCell>
        <mxCell id="85k659dpWBTyzMiFjKNi-37" style="shape=tableRow;horizontal=0;startSize=0;swimlaneHead=0;swimlaneBody=0;strokeColor=inherit;top=0;left=0;bottom=0;right=0;collapsible=0;dropTarget=0;fillColor=none;points=[[0,0.5],[1,0.5]];portConstraint=eastwest;fontSize=16;" parent="kxWkAaZomFuKM2yIZcbC-56" vertex="1">
          <mxGeometry y="240" width="1677" height="40" as="geometry" />
        </mxCell>
        <mxCell id="85k659dpWBTyzMiFjKNi-39" value="" style="shape=partialRectangle;html=1;whiteSpace=wrap;connectable=0;strokeColor=inherit;overflow=hidden;fillColor=none;top=0;left=0;bottom=0;right=0;pointerEvents=1;fontSize=16;" parent="85k659dpWBTyzMiFjKNi-37" vertex="1">
          <mxGeometry width="190" height="40" as="geometry">
            <mxRectangle width="190" height="40" as="alternateBounds" />
          </mxGeometry>
        </mxCell>
        <mxCell id="85k659dpWBTyzMiFjKNi-40" value="&lt;font style=&quot;font-size: 30px;&quot;&gt;政治団体1&lt;/font&gt;" style="shape=partialRectangle;html=1;whiteSpace=wrap;connectable=0;strokeColor=inherit;overflow=hidden;fillColor=none;top=0;left=0;bottom=0;right=0;pointerEvents=1;fontSize=16;align=left;" parent="85k659dpWBTyzMiFjKNi-37" vertex="1">
          <mxGeometry x="190" width="257" height="40" as="geometry">
            <mxRectangle width="257" height="40" as="alternateBounds" />
          </mxGeometry>
        </mxCell>
        <mxCell id="jg2MIfzhhFmE0y6_k9qZ-6" style="shape=partialRectangle;html=1;whiteSpace=wrap;connectable=0;strokeColor=inherit;overflow=hidden;fillColor=none;top=0;left=0;bottom=0;right=0;pointerEvents=1;fontSize=16;" parent="85k659dpWBTyzMiFjKNi-37" vertex="1">
          <mxGeometry x="447" width="150" height="40" as="geometry">
            <mxRectangle width="150" height="40" as="alternateBounds" />
          </mxGeometry>
        </mxCell>
        <mxCell id="85k659dpWBTyzMiFjKNi-41" style="shape=partialRectangle;html=1;whiteSpace=wrap;connectable=0;strokeColor=inherit;overflow=hidden;fillColor=none;top=0;left=0;bottom=0;right=0;pointerEvents=1;fontSize=16;" parent="85k659dpWBTyzMiFjKNi-37" vertex="1">
          <mxGeometry x="597" width="210" height="40" as="geometry">
            <mxRectangle width="210" height="40" as="alternateBounds" />
          </mxGeometry>
        </mxCell>
        <mxCell id="85k659dpWBTyzMiFjKNi-42" value="" style="shape=partialRectangle;html=1;whiteSpace=wrap;connectable=0;strokeColor=inherit;overflow=hidden;fillColor=none;top=0;left=0;bottom=0;right=0;pointerEvents=1;fontSize=30;" parent="85k659dpWBTyzMiFjKNi-37" vertex="1">
          <mxGeometry x="807" width="340" height="40" as="geometry">
            <mxRectangle width="340" height="40" as="alternateBounds" />
          </mxGeometry>
        </mxCell>
        <mxCell id="MaUud2tb9p-aUOcpimnH-6" style="shape=partialRectangle;html=1;whiteSpace=wrap;connectable=0;strokeColor=inherit;overflow=hidden;fillColor=none;top=0;left=0;bottom=0;right=0;pointerEvents=1;fontSize=16;align=left;" parent="85k659dpWBTyzMiFjKNi-37" vertex="1">
          <mxGeometry x="1147" width="190" height="40" as="geometry">
            <mxRectangle width="190" height="40" as="alternateBounds" />
          </mxGeometry>
        </mxCell>
        <mxCell id="85k659dpWBTyzMiFjKNi-43" style="shape=partialRectangle;html=1;whiteSpace=wrap;connectable=0;strokeColor=inherit;overflow=hidden;fillColor=none;top=0;left=0;bottom=0;right=0;pointerEvents=1;fontSize=16;align=left;" parent="85k659dpWBTyzMiFjKNi-37" vertex="1">
          <mxGeometry x="1337" width="340" height="40" as="geometry">
            <mxRectangle width="340" height="40" as="alternateBounds" />
          </mxGeometry>
        </mxCell>
        <mxCell id="85k659dpWBTyzMiFjKNi-29" style="shape=tableRow;horizontal=0;startSize=0;swimlaneHead=0;swimlaneBody=0;strokeColor=inherit;top=0;left=0;bottom=0;right=0;collapsible=0;dropTarget=0;fillColor=none;points=[[0,0.5],[1,0.5]];portConstraint=eastwest;fontSize=16;" parent="kxWkAaZomFuKM2yIZcbC-56" vertex="1">
          <mxGeometry y="280" width="1677" height="50" as="geometry" />
        </mxCell>
        <mxCell id="85k659dpWBTyzMiFjKNi-31" value="" style="shape=partialRectangle;html=1;whiteSpace=wrap;connectable=0;strokeColor=inherit;overflow=hidden;fillColor=none;top=0;left=0;bottom=0;right=0;pointerEvents=1;fontSize=16;" parent="85k659dpWBTyzMiFjKNi-29" vertex="1">
          <mxGeometry width="190" height="50" as="geometry">
            <mxRectangle width="190" height="50" as="alternateBounds" />
          </mxGeometry>
        </mxCell>
        <mxCell id="85k659dpWBTyzMiFjKNi-32" value="政治団体1" style="shape=partialRectangle;html=1;whiteSpace=wrap;connectable=0;strokeColor=inherit;overflow=hidden;fillColor=none;top=0;left=0;bottom=0;right=0;pointerEvents=1;fontSize=30;align=left;" parent="85k659dpWBTyzMiFjKNi-29" vertex="1">
          <mxGeometry x="190" width="257" height="50" as="geometry">
            <mxRectangle width="257" height="50" as="alternateBounds" />
          </mxGeometry>
        </mxCell>
        <mxCell id="jg2MIfzhhFmE0y6_k9qZ-7" style="shape=partialRectangle;html=1;whiteSpace=wrap;connectable=0;strokeColor=inherit;overflow=hidden;fillColor=none;top=0;left=0;bottom=0;right=0;pointerEvents=1;fontSize=16;" parent="85k659dpWBTyzMiFjKNi-29" vertex="1">
          <mxGeometry x="447" width="150" height="50" as="geometry">
            <mxRectangle width="150" height="50" as="alternateBounds" />
          </mxGeometry>
        </mxCell>
        <mxCell id="85k659dpWBTyzMiFjKNi-33" style="shape=partialRectangle;html=1;whiteSpace=wrap;connectable=0;strokeColor=inherit;overflow=hidden;fillColor=none;top=0;left=0;bottom=0;right=0;pointerEvents=1;fontSize=16;" parent="85k659dpWBTyzMiFjKNi-29" vertex="1">
          <mxGeometry x="597" width="210" height="50" as="geometry">
            <mxRectangle width="210" height="50" as="alternateBounds" />
          </mxGeometry>
        </mxCell>
        <mxCell id="85k659dpWBTyzMiFjKNi-34" value="" style="shape=partialRectangle;html=1;whiteSpace=wrap;connectable=0;strokeColor=inherit;overflow=hidden;fillColor=none;top=0;left=0;bottom=0;right=0;pointerEvents=1;fontSize=30;fontStyle=4" parent="85k659dpWBTyzMiFjKNi-29" vertex="1">
          <mxGeometry x="807" width="340" height="50" as="geometry">
            <mxRectangle width="340" height="50" as="alternateBounds" />
          </mxGeometry>
        </mxCell>
        <mxCell id="MaUud2tb9p-aUOcpimnH-7" style="shape=partialRectangle;html=1;whiteSpace=wrap;connectable=0;strokeColor=inherit;overflow=hidden;fillColor=none;top=0;left=0;bottom=0;right=0;pointerEvents=1;fontSize=16;align=left;" parent="85k659dpWBTyzMiFjKNi-29" vertex="1">
          <mxGeometry x="1147" width="190" height="50" as="geometry">
            <mxRectangle width="190" height="50" as="alternateBounds" />
          </mxGeometry>
        </mxCell>
        <mxCell id="85k659dpWBTyzMiFjKNi-35" value="&lt;font style=&quot;font-size: 30px;&quot;&gt;&lt;u&gt;市民団体2&lt;/u&gt;&lt;/font&gt;" style="shape=partialRectangle;html=1;whiteSpace=wrap;connectable=0;strokeColor=inherit;overflow=hidden;fillColor=none;top=0;left=0;bottom=0;right=0;pointerEvents=1;fontSize=16;align=left;" parent="85k659dpWBTyzMiFjKNi-29" vertex="1">
          <mxGeometry x="1337" width="340" height="50" as="geometry">
            <mxRectangle width="340" height="50" as="alternateBounds" />
          </mxGeometry>
        </mxCell>
        <mxCell id="85k659dpWBTyzMiFjKNi-21" style="shape=tableRow;horizontal=0;startSize=0;swimlaneHead=0;swimlaneBody=0;strokeColor=inherit;top=0;left=0;bottom=0;right=0;collapsible=0;dropTarget=0;fillColor=none;points=[[0,0.5],[1,0.5]];portConstraint=eastwest;fontSize=16;" parent="kxWkAaZomFuKM2yIZcbC-56" vertex="1">
          <mxGeometry y="330" width="1677" height="40" as="geometry" />
        </mxCell>
        <mxCell id="85k659dpWBTyzMiFjKNi-23" value="" style="shape=partialRectangle;html=1;whiteSpace=wrap;connectable=0;strokeColor=inherit;overflow=hidden;fillColor=none;top=0;left=0;bottom=0;right=0;pointerEvents=1;fontSize=16;" parent="85k659dpWBTyzMiFjKNi-21" vertex="1">
          <mxGeometry width="190" height="40" as="geometry">
            <mxRectangle width="190" height="40" as="alternateBounds" />
          </mxGeometry>
        </mxCell>
        <mxCell id="85k659dpWBTyzMiFjKNi-24" value="政治団体1" style="shape=partialRectangle;html=1;whiteSpace=wrap;connectable=0;strokeColor=inherit;overflow=hidden;fillColor=none;top=0;left=0;bottom=0;right=0;pointerEvents=1;fontSize=30;align=left;" parent="85k659dpWBTyzMiFjKNi-21" vertex="1">
          <mxGeometry x="190" width="257" height="40" as="geometry">
            <mxRectangle width="257" height="40" as="alternateBounds" />
          </mxGeometry>
        </mxCell>
        <mxCell id="jg2MIfzhhFmE0y6_k9qZ-8" style="shape=partialRectangle;html=1;whiteSpace=wrap;connectable=0;strokeColor=inherit;overflow=hidden;fillColor=none;top=0;left=0;bottom=0;right=0;pointerEvents=1;fontSize=16;" parent="85k659dpWBTyzMiFjKNi-21" vertex="1">
          <mxGeometry x="447" width="150" height="40" as="geometry">
            <mxRectangle width="150" height="40" as="alternateBounds" />
          </mxGeometry>
        </mxCell>
        <mxCell id="85k659dpWBTyzMiFjKNi-25" style="shape=partialRectangle;html=1;whiteSpace=wrap;connectable=0;strokeColor=inherit;overflow=hidden;fillColor=none;top=0;left=0;bottom=0;right=0;pointerEvents=1;fontSize=16;" parent="85k659dpWBTyzMiFjKNi-21" vertex="1">
          <mxGeometry x="597" width="210" height="40" as="geometry">
            <mxRectangle width="210" height="40" as="alternateBounds" />
          </mxGeometry>
        </mxCell>
        <mxCell id="85k659dpWBTyzMiFjKNi-26" value="提出先選挙管理委員会" style="shape=partialRectangle;html=1;whiteSpace=wrap;connectable=0;strokeColor=inherit;overflow=hidden;fillColor=none;top=0;left=0;bottom=0;right=0;pointerEvents=1;fontSize=30;fontStyle=4;align=left;" parent="85k659dpWBTyzMiFjKNi-21" vertex="1">
          <mxGeometry x="807" width="340" height="40" as="geometry">
            <mxRectangle width="340" height="40" as="alternateBounds" />
          </mxGeometry>
        </mxCell>
        <mxCell id="MaUud2tb9p-aUOcpimnH-8" value="&lt;font style=&quot;font-size: 30px;&quot;&gt;終了&lt;/font&gt;" style="shape=partialRectangle;html=1;whiteSpace=wrap;connectable=0;strokeColor=inherit;overflow=hidden;fillColor=none;top=0;left=0;bottom=0;right=0;pointerEvents=1;fontSize=16;align=center;" parent="85k659dpWBTyzMiFjKNi-21" vertex="1">
          <mxGeometry x="1147" width="190" height="40" as="geometry">
            <mxRectangle width="190" height="40" as="alternateBounds" />
          </mxGeometry>
        </mxCell>
        <mxCell id="85k659dpWBTyzMiFjKNi-27" style="shape=partialRectangle;html=1;whiteSpace=wrap;connectable=0;strokeColor=inherit;overflow=hidden;fillColor=none;top=0;left=0;bottom=0;right=0;pointerEvents=1;fontSize=16;align=left;" parent="85k659dpWBTyzMiFjKNi-21" vertex="1">
          <mxGeometry x="1337" width="340" height="40" as="geometry">
            <mxRectangle width="340" height="40" as="alternateBounds" />
          </mxGeometry>
        </mxCell>
        <mxCell id="85k659dpWBTyzMiFjKNi-13" style="shape=tableRow;horizontal=0;startSize=0;swimlaneHead=0;swimlaneBody=0;strokeColor=inherit;top=0;left=0;bottom=0;right=0;collapsible=0;dropTarget=0;fillColor=none;points=[[0,0.5],[1,0.5]];portConstraint=eastwest;fontSize=16;" parent="kxWkAaZomFuKM2yIZcbC-56" vertex="1">
          <mxGeometry y="370" width="1677" height="40" as="geometry" />
        </mxCell>
        <mxCell id="85k659dpWBTyzMiFjKNi-15" value="" style="shape=partialRectangle;html=1;whiteSpace=wrap;connectable=0;strokeColor=inherit;overflow=hidden;fillColor=none;top=0;left=0;bottom=0;right=0;pointerEvents=1;fontSize=16;" parent="85k659dpWBTyzMiFjKNi-13" vertex="1">
          <mxGeometry width="190" height="40" as="geometry">
            <mxRectangle width="190" height="40" as="alternateBounds" />
          </mxGeometry>
        </mxCell>
        <mxCell id="85k659dpWBTyzMiFjKNi-16" value="政治団体1" style="shape=partialRectangle;html=1;whiteSpace=wrap;connectable=0;strokeColor=inherit;overflow=hidden;fillColor=none;top=0;left=0;bottom=0;right=0;pointerEvents=1;fontSize=30;align=left;" parent="85k659dpWBTyzMiFjKNi-13" vertex="1">
          <mxGeometry x="190" width="257" height="40" as="geometry">
            <mxRectangle width="257" height="40" as="alternateBounds" />
          </mxGeometry>
        </mxCell>
        <mxCell id="jg2MIfzhhFmE0y6_k9qZ-9" value="&lt;font style=&quot;font-size: 30px;&quot;&gt;1&lt;/font&gt;" style="shape=partialRectangle;html=1;whiteSpace=wrap;connectable=0;strokeColor=inherit;overflow=hidden;fillColor=none;top=0;left=0;bottom=0;right=0;pointerEvents=1;fontSize=16;" parent="85k659dpWBTyzMiFjKNi-13" vertex="1">
          <mxGeometry x="447" width="150" height="40" as="geometry">
            <mxRectangle width="150" height="40" as="alternateBounds" />
          </mxGeometry>
        </mxCell>
        <mxCell id="85k659dpWBTyzMiFjKNi-17" value="&lt;font style=&quot;font-size: 30px;&quot;&gt;&lt;u&gt;〇参照&lt;/u&gt;&lt;/font&gt;" style="shape=partialRectangle;html=1;whiteSpace=wrap;connectable=0;strokeColor=inherit;overflow=hidden;fillColor=none;top=0;left=0;bottom=0;right=0;pointerEvents=1;fontSize=16;" parent="85k659dpWBTyzMiFjKNi-13" vertex="1">
          <mxGeometry x="597" width="210" height="40" as="geometry">
            <mxRectangle width="210" height="40" as="alternateBounds" />
          </mxGeometry>
        </mxCell>
        <mxCell id="85k659dpWBTyzMiFjKNi-18" value="提出先選挙管理委員会" style="shape=partialRectangle;html=1;whiteSpace=wrap;connectable=0;strokeColor=inherit;overflow=hidden;fillColor=none;top=0;left=0;bottom=0;right=0;pointerEvents=1;fontSize=30;fontStyle=4;align=left;" parent="85k659dpWBTyzMiFjKNi-13" vertex="1">
          <mxGeometry x="807" width="340" height="40" as="geometry">
            <mxRectangle width="340" height="40" as="alternateBounds" />
          </mxGeometry>
        </mxCell>
        <mxCell id="MaUud2tb9p-aUOcpimnH-9" value="&lt;font style=&quot;font-size: 30px;&quot;&gt;終了&lt;/font&gt;" style="shape=partialRectangle;html=1;whiteSpace=wrap;connectable=0;strokeColor=inherit;overflow=hidden;fillColor=none;top=0;left=0;bottom=0;right=0;pointerEvents=1;fontSize=16;align=center;" parent="85k659dpWBTyzMiFjKNi-13" vertex="1">
          <mxGeometry x="1147" width="190" height="40" as="geometry">
            <mxRectangle width="190" height="40" as="alternateBounds" />
          </mxGeometry>
        </mxCell>
        <mxCell id="85k659dpWBTyzMiFjKNi-19" style="shape=partialRectangle;html=1;whiteSpace=wrap;connectable=0;strokeColor=inherit;overflow=hidden;fillColor=none;top=0;left=0;bottom=0;right=0;pointerEvents=1;fontSize=16;align=left;" parent="85k659dpWBTyzMiFjKNi-13" vertex="1">
          <mxGeometry x="1337" width="340" height="40" as="geometry">
            <mxRectangle width="340" height="40" as="alternateBounds" />
          </mxGeometry>
        </mxCell>
        <mxCell id="85k659dpWBTyzMiFjKNi-5" style="shape=tableRow;horizontal=0;startSize=0;swimlaneHead=0;swimlaneBody=0;strokeColor=inherit;top=0;left=0;bottom=0;right=0;collapsible=0;dropTarget=0;fillColor=none;points=[[0,0.5],[1,0.5]];portConstraint=eastwest;fontSize=16;fontStyle=4" parent="kxWkAaZomFuKM2yIZcbC-56" vertex="1">
          <mxGeometry y="410" width="1677" height="40" as="geometry" />
        </mxCell>
        <mxCell id="85k659dpWBTyzMiFjKNi-7" value="" style="shape=partialRectangle;html=1;whiteSpace=wrap;connectable=0;strokeColor=inherit;overflow=hidden;fillColor=none;top=0;left=0;bottom=0;right=0;pointerEvents=1;fontSize=16;" parent="85k659dpWBTyzMiFjKNi-5" vertex="1">
          <mxGeometry width="190" height="40" as="geometry">
            <mxRectangle width="190" height="40" as="alternateBounds" />
          </mxGeometry>
        </mxCell>
        <mxCell id="85k659dpWBTyzMiFjKNi-8" value="政治団体1" style="shape=partialRectangle;html=1;whiteSpace=wrap;connectable=0;strokeColor=inherit;overflow=hidden;fillColor=none;top=0;left=0;bottom=0;right=0;pointerEvents=1;fontSize=30;align=left;" parent="85k659dpWBTyzMiFjKNi-5" vertex="1">
          <mxGeometry x="190" width="257" height="40" as="geometry">
            <mxRectangle width="257" height="40" as="alternateBounds" />
          </mxGeometry>
        </mxCell>
        <mxCell id="jg2MIfzhhFmE0y6_k9qZ-10" value="&lt;font style=&quot;font-size: 30px;&quot;&gt;1&lt;/font&gt;" style="shape=partialRectangle;html=1;whiteSpace=wrap;connectable=0;strokeColor=inherit;overflow=hidden;fillColor=none;top=0;left=0;bottom=0;right=0;pointerEvents=1;fontSize=16;" parent="85k659dpWBTyzMiFjKNi-5" vertex="1">
          <mxGeometry x="447" width="150" height="40" as="geometry">
            <mxRectangle width="150" height="40" as="alternateBounds" />
          </mxGeometry>
        </mxCell>
        <mxCell id="85k659dpWBTyzMiFjKNi-9" value="&lt;font style=&quot;font-size: 30px;&quot;&gt;&lt;u&gt;〇参照&lt;/u&gt;&lt;/font&gt;" style="shape=partialRectangle;html=1;whiteSpace=wrap;connectable=0;strokeColor=inherit;overflow=hidden;fillColor=none;top=0;left=0;bottom=0;right=0;pointerEvents=1;fontSize=16;" parent="85k659dpWBTyzMiFjKNi-5" vertex="1">
          <mxGeometry x="597" width="210" height="40" as="geometry">
            <mxRectangle width="210" height="40" as="alternateBounds" />
          </mxGeometry>
        </mxCell>
        <mxCell id="85k659dpWBTyzMiFjKNi-10" value="提出先選挙管理委員会" style="shape=partialRectangle;html=1;whiteSpace=wrap;connectable=0;strokeColor=inherit;overflow=hidden;fillColor=none;top=0;left=0;bottom=0;right=0;pointerEvents=1;fontSize=30;fontStyle=4;align=left;" parent="85k659dpWBTyzMiFjKNi-5" vertex="1">
          <mxGeometry x="807" width="340" height="40" as="geometry">
            <mxRectangle width="340" height="40" as="alternateBounds" />
          </mxGeometry>
        </mxCell>
        <mxCell id="MaUud2tb9p-aUOcpimnH-10" style="shape=partialRectangle;html=1;whiteSpace=wrap;connectable=0;strokeColor=inherit;overflow=hidden;fillColor=none;top=0;left=0;bottom=0;right=0;pointerEvents=1;fontSize=16;align=left;" parent="85k659dpWBTyzMiFjKNi-5" vertex="1">
          <mxGeometry x="1147" width="190" height="40" as="geometry">
            <mxRectangle width="190" height="40" as="alternateBounds" />
          </mxGeometry>
        </mxCell>
        <mxCell id="85k659dpWBTyzMiFjKNi-11" style="shape=partialRectangle;html=1;whiteSpace=wrap;connectable=0;strokeColor=inherit;overflow=hidden;fillColor=none;top=0;left=0;bottom=0;right=0;pointerEvents=1;fontSize=16;align=left;" parent="85k659dpWBTyzMiFjKNi-5" vertex="1">
          <mxGeometry x="1337" width="340" height="40" as="geometry">
            <mxRectangle width="340" height="40" as="alternateBounds" />
          </mxGeometry>
        </mxCell>
        <mxCell id="85k659dpWBTyzMiFjKNi-77" style="shape=tableRow;horizontal=0;startSize=0;swimlaneHead=0;swimlaneBody=0;strokeColor=inherit;top=0;left=0;bottom=0;right=0;collapsible=0;dropTarget=0;fillColor=none;points=[[0,0.5],[1,0.5]];portConstraint=eastwest;fontSize=16;" parent="kxWkAaZomFuKM2yIZcbC-56" vertex="1">
          <mxGeometry y="450" width="1677" height="40" as="geometry" />
        </mxCell>
        <mxCell id="85k659dpWBTyzMiFjKNi-79" value="" style="shape=partialRectangle;html=1;whiteSpace=wrap;connectable=0;strokeColor=inherit;overflow=hidden;fillColor=none;top=0;left=0;bottom=0;right=0;pointerEvents=1;fontSize=16;" parent="85k659dpWBTyzMiFjKNi-77" vertex="1">
          <mxGeometry width="190" height="40" as="geometry">
            <mxRectangle width="190" height="40" as="alternateBounds" />
          </mxGeometry>
        </mxCell>
        <mxCell id="85k659dpWBTyzMiFjKNi-80" value="政治団体1" style="shape=partialRectangle;html=1;whiteSpace=wrap;connectable=0;strokeColor=inherit;overflow=hidden;fillColor=none;top=0;left=0;bottom=0;right=0;pointerEvents=1;fontSize=30;align=left;" parent="85k659dpWBTyzMiFjKNi-77" vertex="1">
          <mxGeometry x="190" width="257" height="40" as="geometry">
            <mxRectangle width="257" height="40" as="alternateBounds" />
          </mxGeometry>
        </mxCell>
        <mxCell id="jg2MIfzhhFmE0y6_k9qZ-11" value="&lt;font style=&quot;font-size: 30px;&quot;&gt;4&lt;/font&gt;" style="shape=partialRectangle;html=1;whiteSpace=wrap;connectable=0;strokeColor=inherit;overflow=hidden;fillColor=none;top=0;left=0;bottom=0;right=0;pointerEvents=1;fontSize=16;" parent="85k659dpWBTyzMiFjKNi-77" vertex="1">
          <mxGeometry x="447" width="150" height="40" as="geometry">
            <mxRectangle width="150" height="40" as="alternateBounds" />
          </mxGeometry>
        </mxCell>
        <mxCell id="85k659dpWBTyzMiFjKNi-81" value="&lt;font style=&quot;font-size: 30px;&quot;&gt;&lt;u&gt;〇参照&lt;/u&gt;&lt;/font&gt;" style="shape=partialRectangle;html=1;whiteSpace=wrap;connectable=0;strokeColor=inherit;overflow=hidden;fillColor=none;top=0;left=0;bottom=0;right=0;pointerEvents=1;fontSize=16;" parent="85k659dpWBTyzMiFjKNi-77" vertex="1">
          <mxGeometry x="597" width="210" height="40" as="geometry">
            <mxRectangle width="210" height="40" as="alternateBounds" />
          </mxGeometry>
        </mxCell>
        <mxCell id="85k659dpWBTyzMiFjKNi-82" value="提出先選挙管理委員会" style="shape=partialRectangle;html=1;whiteSpace=wrap;connectable=0;strokeColor=inherit;overflow=hidden;fillColor=none;top=0;left=0;bottom=0;right=0;pointerEvents=1;fontSize=30;fontStyle=4;align=left;" parent="85k659dpWBTyzMiFjKNi-77" vertex="1">
          <mxGeometry x="807" width="340" height="40" as="geometry">
            <mxRectangle width="340" height="40" as="alternateBounds" />
          </mxGeometry>
        </mxCell>
        <mxCell id="MaUud2tb9p-aUOcpimnH-11" style="shape=partialRectangle;html=1;whiteSpace=wrap;connectable=0;strokeColor=inherit;overflow=hidden;fillColor=none;top=0;left=0;bottom=0;right=0;pointerEvents=1;fontSize=16;align=left;" parent="85k659dpWBTyzMiFjKNi-77" vertex="1">
          <mxGeometry x="1147" width="190" height="40" as="geometry">
            <mxRectangle width="190" height="40" as="alternateBounds" />
          </mxGeometry>
        </mxCell>
        <mxCell id="85k659dpWBTyzMiFjKNi-83" style="shape=partialRectangle;html=1;whiteSpace=wrap;connectable=0;strokeColor=inherit;overflow=hidden;fillColor=none;top=0;left=0;bottom=0;right=0;pointerEvents=1;fontSize=16;align=left;" parent="85k659dpWBTyzMiFjKNi-77" vertex="1">
          <mxGeometry x="1337" width="340" height="40" as="geometry">
            <mxRectangle width="340" height="40" as="alternateBounds" />
          </mxGeometry>
        </mxCell>
        <mxCell id="85k659dpWBTyzMiFjKNi-69" style="shape=tableRow;horizontal=0;startSize=0;swimlaneHead=0;swimlaneBody=0;strokeColor=inherit;top=0;left=0;bottom=0;right=0;collapsible=0;dropTarget=0;fillColor=none;points=[[0,0.5],[1,0.5]];portConstraint=eastwest;fontSize=16;" parent="kxWkAaZomFuKM2yIZcbC-56" vertex="1">
          <mxGeometry y="490" width="1677" height="50" as="geometry" />
        </mxCell>
        <mxCell id="85k659dpWBTyzMiFjKNi-71" value="" style="shape=partialRectangle;html=1;whiteSpace=wrap;connectable=0;strokeColor=inherit;overflow=hidden;fillColor=none;top=0;left=0;bottom=0;right=0;pointerEvents=1;fontSize=16;" parent="85k659dpWBTyzMiFjKNi-69" vertex="1">
          <mxGeometry width="190" height="50" as="geometry">
            <mxRectangle width="190" height="50" as="alternateBounds" />
          </mxGeometry>
        </mxCell>
        <mxCell id="85k659dpWBTyzMiFjKNi-72" value="政治団体1" style="shape=partialRectangle;html=1;whiteSpace=wrap;connectable=0;strokeColor=inherit;overflow=hidden;fillColor=none;top=0;left=0;bottom=0;right=0;pointerEvents=1;fontSize=30;align=left;" parent="85k659dpWBTyzMiFjKNi-69" vertex="1">
          <mxGeometry x="190" width="257" height="50" as="geometry">
            <mxRectangle width="257" height="50" as="alternateBounds" />
          </mxGeometry>
        </mxCell>
        <mxCell id="jg2MIfzhhFmE0y6_k9qZ-12" value="&lt;font style=&quot;font-size: 30px;&quot;&gt;1&lt;/font&gt;" style="shape=partialRectangle;html=1;whiteSpace=wrap;connectable=0;strokeColor=inherit;overflow=hidden;fillColor=none;top=0;left=0;bottom=0;right=0;pointerEvents=1;fontSize=16;" parent="85k659dpWBTyzMiFjKNi-69" vertex="1">
          <mxGeometry x="447" width="150" height="50" as="geometry">
            <mxRectangle width="150" height="50" as="alternateBounds" />
          </mxGeometry>
        </mxCell>
        <mxCell id="85k659dpWBTyzMiFjKNi-73" value="&lt;font style=&quot;font-size: 30px;&quot;&gt;&lt;u&gt;〇参照&lt;/u&gt;&lt;/font&gt;" style="shape=partialRectangle;html=1;whiteSpace=wrap;connectable=0;strokeColor=inherit;overflow=hidden;fillColor=none;top=0;left=0;bottom=0;right=0;pointerEvents=1;fontSize=16;" parent="85k659dpWBTyzMiFjKNi-69" vertex="1">
          <mxGeometry x="597" width="210" height="50" as="geometry">
            <mxRectangle width="210" height="50" as="alternateBounds" />
          </mxGeometry>
        </mxCell>
        <mxCell id="85k659dpWBTyzMiFjKNi-74" value="&lt;font style=&quot;font-size: 30px;&quot;&gt;提出先選挙管理委員会&lt;/font&gt;" style="shape=partialRectangle;html=1;whiteSpace=wrap;connectable=0;strokeColor=inherit;overflow=hidden;fillColor=none;top=0;left=0;bottom=0;right=0;pointerEvents=1;fontSize=16;fontStyle=4;align=left;" parent="85k659dpWBTyzMiFjKNi-69" vertex="1">
          <mxGeometry x="807" width="340" height="50" as="geometry">
            <mxRectangle width="340" height="50" as="alternateBounds" />
          </mxGeometry>
        </mxCell>
        <mxCell id="MaUud2tb9p-aUOcpimnH-12" style="shape=partialRectangle;html=1;whiteSpace=wrap;connectable=0;strokeColor=inherit;overflow=hidden;fillColor=none;top=0;left=0;bottom=0;right=0;pointerEvents=1;fontSize=16;align=left;" parent="85k659dpWBTyzMiFjKNi-69" vertex="1">
          <mxGeometry x="1147" width="190" height="50" as="geometry">
            <mxRectangle width="190" height="50" as="alternateBounds" />
          </mxGeometry>
        </mxCell>
        <mxCell id="85k659dpWBTyzMiFjKNi-75" style="shape=partialRectangle;html=1;whiteSpace=wrap;connectable=0;strokeColor=inherit;overflow=hidden;fillColor=none;top=0;left=0;bottom=0;right=0;pointerEvents=1;fontSize=16;align=left;" parent="85k659dpWBTyzMiFjKNi-69" vertex="1">
          <mxGeometry x="1337" width="340" height="50" as="geometry">
            <mxRectangle width="340" height="50" as="alternateBounds" />
          </mxGeometry>
        </mxCell>
        <mxCell id="85k659dpWBTyzMiFjKNi-61" style="shape=tableRow;horizontal=0;startSize=0;swimlaneHead=0;swimlaneBody=0;strokeColor=inherit;top=0;left=0;bottom=0;right=0;collapsible=0;dropTarget=0;fillColor=none;points=[[0,0.5],[1,0.5]];portConstraint=eastwest;fontSize=30;" parent="kxWkAaZomFuKM2yIZcbC-56" vertex="1">
          <mxGeometry y="540" width="1677" height="40" as="geometry" />
        </mxCell>
        <mxCell id="85k659dpWBTyzMiFjKNi-63" value="" style="shape=partialRectangle;html=1;whiteSpace=wrap;connectable=0;strokeColor=inherit;overflow=hidden;fillColor=none;top=0;left=0;bottom=0;right=0;pointerEvents=1;fontSize=16;" parent="85k659dpWBTyzMiFjKNi-61" vertex="1">
          <mxGeometry width="190" height="40" as="geometry">
            <mxRectangle width="190" height="40" as="alternateBounds" />
          </mxGeometry>
        </mxCell>
        <mxCell id="85k659dpWBTyzMiFjKNi-64" value="政治団体1" style="shape=partialRectangle;html=1;whiteSpace=wrap;connectable=0;strokeColor=inherit;overflow=hidden;fillColor=none;top=0;left=0;bottom=0;right=0;pointerEvents=1;fontSize=30;align=left;" parent="85k659dpWBTyzMiFjKNi-61" vertex="1">
          <mxGeometry x="190" width="257" height="40" as="geometry">
            <mxRectangle width="257" height="40" as="alternateBounds" />
          </mxGeometry>
        </mxCell>
        <mxCell id="jg2MIfzhhFmE0y6_k9qZ-13" value="&lt;font style=&quot;font-size: 30px;&quot;&gt;1&lt;/font&gt;" style="shape=partialRectangle;html=1;whiteSpace=wrap;connectable=0;strokeColor=inherit;overflow=hidden;fillColor=none;top=0;left=0;bottom=0;right=0;pointerEvents=1;fontSize=16;" parent="85k659dpWBTyzMiFjKNi-61" vertex="1">
          <mxGeometry x="447" width="150" height="40" as="geometry">
            <mxRectangle width="150" height="40" as="alternateBounds" />
          </mxGeometry>
        </mxCell>
        <mxCell id="85k659dpWBTyzMiFjKNi-65" value="&lt;font style=&quot;font-size: 30px;&quot;&gt;&lt;u&gt;〇参照&lt;/u&gt;&lt;/font&gt;" style="shape=partialRectangle;html=1;whiteSpace=wrap;connectable=0;strokeColor=inherit;overflow=hidden;fillColor=none;top=0;left=0;bottom=0;right=0;pointerEvents=1;fontSize=16;" parent="85k659dpWBTyzMiFjKNi-61" vertex="1">
          <mxGeometry x="597" width="210" height="40" as="geometry">
            <mxRectangle width="210" height="40" as="alternateBounds" />
          </mxGeometry>
        </mxCell>
        <mxCell id="85k659dpWBTyzMiFjKNi-66" value="提出先選挙管理委員会" style="shape=partialRectangle;html=1;whiteSpace=wrap;connectable=0;strokeColor=inherit;overflow=hidden;fillColor=none;top=0;left=0;bottom=0;right=0;pointerEvents=1;fontSize=30;fontStyle=4;align=left;" parent="85k659dpWBTyzMiFjKNi-61" vertex="1">
          <mxGeometry x="807" width="340" height="40" as="geometry">
            <mxRectangle width="340" height="40" as="alternateBounds" />
          </mxGeometry>
        </mxCell>
        <mxCell id="MaUud2tb9p-aUOcpimnH-13" style="shape=partialRectangle;html=1;whiteSpace=wrap;connectable=0;strokeColor=inherit;overflow=hidden;fillColor=none;top=0;left=0;bottom=0;right=0;pointerEvents=1;fontSize=16;align=left;" parent="85k659dpWBTyzMiFjKNi-61" vertex="1">
          <mxGeometry x="1147" width="190" height="40" as="geometry">
            <mxRectangle width="190" height="40" as="alternateBounds" />
          </mxGeometry>
        </mxCell>
        <mxCell id="85k659dpWBTyzMiFjKNi-67" style="shape=partialRectangle;html=1;whiteSpace=wrap;connectable=0;strokeColor=inherit;overflow=hidden;fillColor=none;top=0;left=0;bottom=0;right=0;pointerEvents=1;fontSize=16;align=left;" parent="85k659dpWBTyzMiFjKNi-61" vertex="1">
          <mxGeometry x="1337" width="340" height="40" as="geometry">
            <mxRectangle width="340" height="40" as="alternateBounds" />
          </mxGeometry>
        </mxCell>
        <mxCell id="85k659dpWBTyzMiFjKNi-53" style="shape=tableRow;horizontal=0;startSize=0;swimlaneHead=0;swimlaneBody=0;strokeColor=inherit;top=0;left=0;bottom=0;right=0;collapsible=0;dropTarget=0;fillColor=none;points=[[0,0.5],[1,0.5]];portConstraint=eastwest;fontSize=16;" parent="kxWkAaZomFuKM2yIZcbC-56" vertex="1">
          <mxGeometry y="580" width="1677" height="50" as="geometry" />
        </mxCell>
        <mxCell id="85k659dpWBTyzMiFjKNi-55" value="" style="shape=partialRectangle;html=1;whiteSpace=wrap;connectable=0;strokeColor=inherit;overflow=hidden;fillColor=none;top=0;left=0;bottom=0;right=0;pointerEvents=1;fontSize=16;" parent="85k659dpWBTyzMiFjKNi-53" vertex="1">
          <mxGeometry width="190" height="50" as="geometry">
            <mxRectangle width="190" height="50" as="alternateBounds" />
          </mxGeometry>
        </mxCell>
        <mxCell id="85k659dpWBTyzMiFjKNi-56" value="政治団体1" style="shape=partialRectangle;html=1;whiteSpace=wrap;connectable=0;strokeColor=inherit;overflow=hidden;fillColor=none;top=0;left=0;bottom=0;right=0;pointerEvents=1;fontSize=30;align=left;" parent="85k659dpWBTyzMiFjKNi-53" vertex="1">
          <mxGeometry x="190" width="257" height="50" as="geometry">
            <mxRectangle width="257" height="50" as="alternateBounds" />
          </mxGeometry>
        </mxCell>
        <mxCell id="jg2MIfzhhFmE0y6_k9qZ-14" value="&lt;font style=&quot;font-size: 30px;&quot;&gt;2&lt;/font&gt;" style="shape=partialRectangle;html=1;whiteSpace=wrap;connectable=0;strokeColor=inherit;overflow=hidden;fillColor=none;top=0;left=0;bottom=0;right=0;pointerEvents=1;fontSize=16;" parent="85k659dpWBTyzMiFjKNi-53" vertex="1">
          <mxGeometry x="447" width="150" height="50" as="geometry">
            <mxRectangle width="150" height="50" as="alternateBounds" />
          </mxGeometry>
        </mxCell>
        <mxCell id="85k659dpWBTyzMiFjKNi-57" value="&lt;font style=&quot;font-size: 30px;&quot;&gt;&lt;u&gt;〇参照&lt;/u&gt;&lt;/font&gt;" style="shape=partialRectangle;html=1;whiteSpace=wrap;connectable=0;strokeColor=inherit;overflow=hidden;fillColor=none;top=0;left=0;bottom=0;right=0;pointerEvents=1;fontSize=16;" parent="85k659dpWBTyzMiFjKNi-53" vertex="1">
          <mxGeometry x="597" width="210" height="50" as="geometry">
            <mxRectangle width="210" height="50" as="alternateBounds" />
          </mxGeometry>
        </mxCell>
        <mxCell id="85k659dpWBTyzMiFjKNi-58" value="&lt;font style=&quot;font-size: 30px;&quot;&gt;提出先選挙管理委員会&lt;/font&gt;" style="shape=partialRectangle;html=1;whiteSpace=wrap;connectable=0;strokeColor=inherit;overflow=hidden;fillColor=none;top=0;left=0;bottom=0;right=0;pointerEvents=1;fontSize=16;fontStyle=4;align=left;" parent="85k659dpWBTyzMiFjKNi-53" vertex="1">
          <mxGeometry x="807" width="340" height="50" as="geometry">
            <mxRectangle width="340" height="50" as="alternateBounds" />
          </mxGeometry>
        </mxCell>
        <mxCell id="MaUud2tb9p-aUOcpimnH-14" style="shape=partialRectangle;html=1;whiteSpace=wrap;connectable=0;strokeColor=inherit;overflow=hidden;fillColor=none;top=0;left=0;bottom=0;right=0;pointerEvents=1;fontSize=16;align=left;" parent="85k659dpWBTyzMiFjKNi-53" vertex="1">
          <mxGeometry x="1147" width="190" height="50" as="geometry">
            <mxRectangle width="190" height="50" as="alternateBounds" />
          </mxGeometry>
        </mxCell>
        <mxCell id="85k659dpWBTyzMiFjKNi-59" style="shape=partialRectangle;html=1;whiteSpace=wrap;connectable=0;strokeColor=inherit;overflow=hidden;fillColor=none;top=0;left=0;bottom=0;right=0;pointerEvents=1;fontSize=16;align=left;" parent="85k659dpWBTyzMiFjKNi-53" vertex="1">
          <mxGeometry x="1337" width="340" height="50" as="geometry">
            <mxRectangle width="340" height="50" as="alternateBounds" />
          </mxGeometry>
        </mxCell>
        <mxCell id="kxWkAaZomFuKM2yIZcbC-108" value="&lt;span style=&quot;font-size: 30px;&quot;&gt;政治団体&lt;/span&gt;" style="rounded=0;whiteSpace=wrap;html=1;align=right;dashed=1;dashPattern=8 8;verticalAlign=bottom;" parent="cFaB45KztUIKXS-_cTrr-14" vertex="1">
          <mxGeometry x="30" y="86" width="310" height="46" as="geometry" />
        </mxCell>
        <mxCell id="kxWkAaZomFuKM2yIZcbC-109" value="&lt;font style=&quot;font-size: 30px;&quot;&gt;政治団体1&lt;/font&gt;&lt;span style=&quot;font-size: 30px;&quot;&gt;&lt;br&gt;&lt;/span&gt;" style="rounded=0;whiteSpace=wrap;html=1;align=left;fillColor=#CCCCCC;" parent="cFaB45KztUIKXS-_cTrr-14" vertex="1">
          <mxGeometry x="550" y="89" width="460" height="48" as="geometry" />
        </mxCell>
        <mxCell id="kxWkAaZomFuKM2yIZcbC-110" value="&lt;span style=&quot;font-size: 30px;&quot;&gt;検索結果&lt;/span&gt;" style="rounded=0;whiteSpace=wrap;html=1;align=left;dashed=1;dashPattern=8 8;verticalAlign=bottom;" parent="cFaB45KztUIKXS-_cTrr-14" vertex="1">
          <mxGeometry x="30" y="232" width="310" height="46" as="geometry" />
        </mxCell>
        <mxCell id="5l2hKBXCzOEWmYN1dR5e-2" value="&lt;span style=&quot;font-size: 30px;&quot;&gt;閉じる&lt;/span&gt;" style="rounded=1;whiteSpace=wrap;html=1;" parent="cFaB45KztUIKXS-_cTrr-14" vertex="1">
          <mxGeometry x="1364" y="1089" width="210" height="60" as="geometry" />
        </mxCell>
        <mxCell id="5l2hKBXCzOEWmYN1dR5e-3" value="&lt;span style=&quot;font-size: 30px;&quot;&gt;団体指定&lt;/span&gt;" style="rounded=1;whiteSpace=wrap;html=1;" parent="cFaB45KztUIKXS-_cTrr-14" vertex="1">
          <mxGeometry x="1266" y="88" width="210" height="51" as="geometry" />
        </mxCell>
        <mxCell id="cdmeLEnnqN9o7mxTk7t2-22" value="&lt;span style=&quot;font-size: 30px;&quot;&gt;確認期間&lt;/span&gt;" style="rounded=0;whiteSpace=wrap;html=1;align=right;dashed=1;dashPattern=8 8;verticalAlign=bottom;" parent="cFaB45KztUIKXS-_cTrr-14" vertex="1">
          <mxGeometry x="30" y="149" width="310" height="46" as="geometry" />
        </mxCell>
        <mxCell id="cdmeLEnnqN9o7mxTk7t2-23" value="&lt;font style=&quot;font-size: 30px;&quot;&gt;2010&lt;/font&gt;&lt;span style=&quot;font-size: 30px;&quot;&gt;&lt;br&gt;&lt;/span&gt;" style="rounded=0;whiteSpace=wrap;html=1;align=right;" parent="cFaB45KztUIKXS-_cTrr-14" vertex="1">
          <mxGeometry x="360" y="150" width="180" height="48" as="geometry" />
        </mxCell>
        <mxCell id="cdmeLEnnqN9o7mxTk7t2-24" value="&lt;span style=&quot;font-size: 30px;&quot;&gt;検索&lt;/span&gt;" style="rounded=1;whiteSpace=wrap;html=1;" parent="cFaB45KztUIKXS-_cTrr-14" vertex="1">
          <mxGeometry x="1267" y="148" width="210" height="51" as="geometry" />
        </mxCell>
        <mxCell id="cdmeLEnnqN9o7mxTk7t2-37" value="&lt;div style=&quot;&quot;&gt;&lt;font style=&quot;font-size: 30px;&quot;&gt;スクロール&lt;/font&gt;&lt;/div&gt;" style="rounded=0;whiteSpace=wrap;html=1;align=left;verticalAlign=top;fillColor=#FFFFCC;" parent="cFaB45KztUIKXS-_cTrr-14" vertex="1">
          <mxGeometry x="30" y="924" width="1500" height="48" as="geometry" />
        </mxCell>
        <mxCell id="cdmeLEnnqN9o7mxTk7t2-38" value="&lt;div style=&quot;&quot;&gt;&lt;br&gt;&lt;/div&gt;" style="rounded=0;whiteSpace=wrap;html=1;align=left;verticalAlign=top;fillColor=#FFFF66;" parent="cFaB45KztUIKXS-_cTrr-14" vertex="1">
          <mxGeometry x="230" y="933" width="290" height="29" as="geometry" />
        </mxCell>
        <mxCell id="85k659dpWBTyzMiFjKNi-0" value="&lt;font style=&quot;font-size: 30px;&quot;&gt;12345&lt;/font&gt;&lt;span style=&quot;font-size: 30px;&quot;&gt;&lt;br&gt;&lt;/span&gt;" style="rounded=0;whiteSpace=wrap;html=1;align=left;fillColor=#CCCCCC;" parent="cFaB45KztUIKXS-_cTrr-14" vertex="1">
          <mxGeometry x="360" y="87" width="180" height="48" as="geometry" />
        </mxCell>
        <mxCell id="85k659dpWBTyzMiFjKNi-2" value="&lt;span style=&quot;font-size: 30px;&quot;&gt;年から&lt;/span&gt;" style="rounded=0;whiteSpace=wrap;html=1;align=left;dashed=1;dashPattern=8 8;verticalAlign=bottom;" parent="cFaB45KztUIKXS-_cTrr-14" vertex="1">
          <mxGeometry x="550" y="152" width="220" height="46" as="geometry" />
        </mxCell>
        <mxCell id="85k659dpWBTyzMiFjKNi-3" value="&lt;font style=&quot;font-size: 30px;&quot;&gt;2023&lt;/font&gt;&lt;span style=&quot;font-size: 30px;&quot;&gt;&lt;br&gt;&lt;/span&gt;" style="rounded=0;whiteSpace=wrap;html=1;align=right;" parent="cFaB45KztUIKXS-_cTrr-14" vertex="1">
          <mxGeometry x="780" y="150" width="180" height="48" as="geometry" />
        </mxCell>
        <mxCell id="85k659dpWBTyzMiFjKNi-4" value="&lt;span style=&quot;font-size: 30px;&quot;&gt;年まで&lt;/span&gt;" style="rounded=0;whiteSpace=wrap;html=1;align=left;dashed=1;dashPattern=8 8;verticalAlign=bottom;" parent="cFaB45KztUIKXS-_cTrr-14" vertex="1">
          <mxGeometry x="970" y="152" width="220" height="46" as="geometry" />
        </mxCell>
        <mxCell id="jg2MIfzhhFmE0y6_k9qZ-15" value="&lt;span style=&quot;font-size: 30px;&quot;&gt;2010&lt;/span&gt;" style="rounded=1;whiteSpace=wrap;html=1;strokeWidth=2;" parent="cFaB45KztUIKXS-_cTrr-14" vertex="1">
          <mxGeometry x="57" y="330" width="134" height="40" as="geometry" />
        </mxCell>
        <mxCell id="jg2MIfzhhFmE0y6_k9qZ-16" value="&lt;span style=&quot;font-size: 30px;&quot;&gt;2023&lt;/span&gt;" style="rounded=1;whiteSpace=wrap;html=1;strokeWidth=2;" parent="cFaB45KztUIKXS-_cTrr-14" vertex="1">
          <mxGeometry x="57" y="874" width="134" height="40" as="geometry" />
        </mxCell>
        <mxCell id="jg2MIfzhhFmE0y6_k9qZ-17" style="edgeStyle=orthogonalEdgeStyle;rounded=0;orthogonalLoop=1;jettySize=auto;html=1;exitX=0.5;exitY=0;exitDx=0;exitDy=0;entryX=0.396;entryY=0.5;entryDx=0;entryDy=0;entryPerimeter=0;" parent="cFaB45KztUIKXS-_cTrr-14" source="jg2MIfzhhFmE0y6_k9qZ-15" target="jg2MIfzhhFmE0y6_k9qZ-15" edge="1">
          <mxGeometry relative="1" as="geometry" />
        </mxCell>
        <mxCell id="jg2MIfzhhFmE0y6_k9qZ-19" value="&lt;span style=&quot;font-size: 30px;&quot;&gt;2011&lt;/span&gt;" style="rounded=1;whiteSpace=wrap;html=1;strokeWidth=2;" parent="cFaB45KztUIKXS-_cTrr-14" vertex="1">
          <mxGeometry x="57" y="370" width="134" height="40" as="geometry" />
        </mxCell>
        <mxCell id="jg2MIfzhhFmE0y6_k9qZ-20" value="&lt;span style=&quot;font-size: 30px;&quot;&gt;2012&lt;/span&gt;" style="rounded=1;whiteSpace=wrap;html=1;strokeWidth=2;" parent="cFaB45KztUIKXS-_cTrr-14" vertex="1">
          <mxGeometry x="57" y="410" width="134" height="40" as="geometry" />
        </mxCell>
        <mxCell id="jg2MIfzhhFmE0y6_k9qZ-21" value="&lt;span style=&quot;font-size: 30px;&quot;&gt;2013&lt;/span&gt;" style="rounded=1;whiteSpace=wrap;html=1;strokeWidth=2;" parent="cFaB45KztUIKXS-_cTrr-14" vertex="1">
          <mxGeometry x="57" y="450" width="134" height="40" as="geometry" />
        </mxCell>
        <mxCell id="jg2MIfzhhFmE0y6_k9qZ-22" value="&lt;span style=&quot;font-size: 30px;&quot;&gt;2014&lt;/span&gt;" style="rounded=1;whiteSpace=wrap;html=1;strokeWidth=2;" parent="cFaB45KztUIKXS-_cTrr-14" vertex="1">
          <mxGeometry x="57" y="490" width="134" height="40" as="geometry" />
        </mxCell>
        <mxCell id="jg2MIfzhhFmE0y6_k9qZ-23" value="&lt;span style=&quot;font-size: 30px;&quot;&gt;2015&lt;/span&gt;" style="rounded=1;whiteSpace=wrap;html=1;strokeWidth=2;" parent="cFaB45KztUIKXS-_cTrr-14" vertex="1">
          <mxGeometry x="57" y="530" width="134" height="40" as="geometry" />
        </mxCell>
        <mxCell id="jg2MIfzhhFmE0y6_k9qZ-24" value="&lt;span style=&quot;font-size: 30px;&quot;&gt;2016&lt;/span&gt;" style="rounded=1;whiteSpace=wrap;html=1;strokeWidth=2;" parent="cFaB45KztUIKXS-_cTrr-14" vertex="1">
          <mxGeometry x="56" y="574" width="134" height="40" as="geometry" />
        </mxCell>
        <mxCell id="jg2MIfzhhFmE0y6_k9qZ-25" value="&lt;span style=&quot;font-size: 30px;&quot;&gt;2017&lt;/span&gt;" style="rounded=1;whiteSpace=wrap;html=1;strokeWidth=2;" parent="cFaB45KztUIKXS-_cTrr-14" vertex="1">
          <mxGeometry x="57" y="618" width="134" height="40" as="geometry" />
        </mxCell>
        <mxCell id="jg2MIfzhhFmE0y6_k9qZ-26" value="&lt;span style=&quot;font-size: 30px;&quot;&gt;2018&lt;/span&gt;" style="rounded=1;whiteSpace=wrap;html=1;strokeWidth=2;" parent="cFaB45KztUIKXS-_cTrr-14" vertex="1">
          <mxGeometry x="57" y="660" width="134" height="40" as="geometry" />
        </mxCell>
        <mxCell id="jg2MIfzhhFmE0y6_k9qZ-27" value="&lt;span style=&quot;font-size: 30px;&quot;&gt;2019&lt;/span&gt;" style="rounded=1;whiteSpace=wrap;html=1;strokeWidth=2;" parent="cFaB45KztUIKXS-_cTrr-14" vertex="1">
          <mxGeometry x="57" y="700" width="134" height="40" as="geometry" />
        </mxCell>
        <mxCell id="jg2MIfzhhFmE0y6_k9qZ-28" value="&lt;span style=&quot;font-size: 30px;&quot;&gt;202&lt;/span&gt;&lt;span style=&quot;font-size: 30px; background-color: initial;&quot;&gt;0&lt;/span&gt;" style="rounded=1;whiteSpace=wrap;html=1;strokeWidth=2;" parent="cFaB45KztUIKXS-_cTrr-14" vertex="1">
          <mxGeometry x="57" y="740" width="134" height="40" as="geometry" />
        </mxCell>
        <mxCell id="jg2MIfzhhFmE0y6_k9qZ-29" value="&lt;span style=&quot;font-size: 30px;&quot;&gt;2021&lt;/span&gt;" style="rounded=1;whiteSpace=wrap;html=1;strokeWidth=2;" parent="cFaB45KztUIKXS-_cTrr-14" vertex="1">
          <mxGeometry x="57" y="785" width="134" height="40" as="geometry" />
        </mxCell>
        <mxCell id="jg2MIfzhhFmE0y6_k9qZ-30" value="&lt;span style=&quot;font-size: 30px;&quot;&gt;2022&lt;/span&gt;" style="rounded=1;whiteSpace=wrap;html=1;strokeWidth=2;" parent="cFaB45KztUIKXS-_cTrr-14" vertex="1">
          <mxGeometry x="57" y="830" width="134" height="40" as="geometry" />
        </mxCell>
      </root>
    </mxGraphModel>
  </diagram>
</mxfile>
